# xmcd CD database file
#
# Track frame offsets:
#	150
#	21147
#	46717
#
# Disc length: 900 seconds
#
# Revision: 0
# Processed by: cddbd v1.5PL3 Copyright (c) Steve Scherf et al.
# Submitted via: CDex 1.50beta9
#
DISCID=17038203
DTITLE=ANRI - CAS'S EYE-2000-
DYEAR=1900
DGENRE=J-POP
TTITLE0=CAS'S EYE-2000-
TTITLE1=KISS
TTITLE2=CAS'S EYE-2000-(Instrumental)
EXTD=
EXTT0=
EXTT1=
EXTT2=
PLAYORDER=
